<svg width="24" height="25" viewBox="0 0 24 25" fill="none" xmlns="http://www.w3.org/2000/svg">
<g clip-path="url(#clip0_21_169)">
<path d="M12 24.3096C5.383 24.3096 0 18.9266 0 12.3096C0 5.69257 5.383 0.30957 12 0.30957C18.617 0.30957 24 5.69257 24 12.3096C24 18.9266 18.617 24.3096 12 24.3096ZM12 2.30957C6.486 2.30957 2 6.79557 2 12.3096C2 17.8236 6.486 22.3096 12 22.3096C17.514 22.3096 22 17.8236 22 12.3096C22 6.79557 17.514 2.30957 12 2.30957ZM14.5 16.6396C14.979 16.3636 15.143 15.7516 14.866 15.2736L13 12.0416V6.30957C13 5.75757 12.553 5.30957 12 5.30957C11.447 5.30957 11 5.75757 11 6.30957V12.3096C11 12.4856 11.046 12.6576 11.134 12.8096L13.134 16.2736C13.32 16.5946 13.655 16.7736 14.001 16.7736C14.171 16.7736 14.343 16.7306 14.5 16.6396Z" fill="black"/>
</g>
<defs>
<clipPath id="clip0_21_169">
<rect width="24" height="24" fill="white" transform="translate(0 0.30957)"/>
</clipPath>
</defs>
</svg>
