<svg width="147" height="135" viewBox="0 0 147 135" fill="none" xmlns="http://www.w3.org/2000/svg">
<path opacity="0.4" d="M42.2205 61.4673C42.2205 71.4084 50.2793 79.4673 60.2205 79.4673L80.9291 79.4673C83.6905 79.4673 85.9291 77.2287 85.9291 74.4673L85.9291 46.6328C85.9291 41.11 81.4519 36.6328 75.9291 36.6328L47.2205 36.6329C44.459 36.6329 42.2205 38.8714 42.2205 41.6329L42.2205 61.4673Z" fill="url(#paint0_linear_4_743)"/>
<path d="M84.6912 75.9199C83.5038 76.1859 82.3472 76.6785 81.2934 77.3669C78.5478 79.1163 76.9504 81.6136 77.7257 82.9442C78.5011 84.2748 81.3553 83.9345 84.1009 82.1851C85.1689 81.521 86.1177 80.6724 86.8889 79.6916C87.2468 79.2177 87.311 78.6273 87.0529 78.1859L86.0457 76.4573C85.7895 76.0145 85.2579 75.8039 84.6912 75.9199Z" fill="#D5D6DB"/>
<path d="M77.7966 52.3228C76.9356 52.5158 76.0968 52.8731 75.3326 53.3723C73.3422 54.6406 72.1833 56.4513 72.7451 57.4154C73.3068 58.3794 75.3772 58.1324 77.3674 56.8643C78.1418 56.3826 78.8297 55.7669 79.389 55.0557C79.6482 54.7122 79.6946 54.2844 79.5076 53.9644L78.7783 52.7128C78.5927 52.3918 78.2075 52.2388 77.7966 52.3228Z" fill="#D5D6DB"/>
<path d="M66.5948 53.3113C66.4031 53.2899 66.1987 53.341 66.0215 53.4542L61.3462 56.4336C60.9552 56.682 60.7987 57.1605 60.9971 57.5024C61.0424 57.5808 61.1045 57.6477 61.1799 57.6993L72.7029 65.6411L88.2924 55.7064L66.5948 53.3113Z" fill="#029BC5"/>
<path d="M115.878 52.1884L73.4525 78.8962L48.3527 88.884L35.552 91.4284L34.1438 89.0356L104.86 45.3737C106.968 44.0669 109.315 43.2648 111.666 43.0488C112.695 42.9597 113.712 42.994 114.692 43.1503C115.561 43.282 116.385 43.5362 117.14 43.9051C117.982 44.3232 119.586 44.3714 120.106 45.2043C120.107 45.203 121.333 49.027 115.878 52.1884Z" fill="#E1E6E9"/>
<path d="M74.0149 75.3621L55.6614 104.621C55.4322 105.032 55.5683 105.492 55.9651 105.649C56.2086 105.745 56.5066 105.707 56.757 105.548L61.4285 102.584C62.3271 102.014 63.1226 101.289 63.7662 100.456L99.3593 58.6102L74.0149 75.3621Z" fill="#029BC5"/>
<path d="M27.7017 74.3852C27.3955 74.2806 27.0312 74.3349 26.7236 74.5307L22.862 76.9901C22.3358 77.325 22.1261 77.9688 22.3935 78.4283C22.4444 78.5156 22.5106 78.5925 22.5899 78.6558L33.4093 87.3209L44.785 80.2156L27.7017 74.3852Z" fill="#029BC5"/>
<path d="M37.0358 88.8829L31.2125 97.0385C31.1272 97.1557 31.1473 97.3028 31.2574 97.3669C31.3368 97.4131 31.4452 97.4048 31.5333 97.3457L35.1421 95.059C35.1701 95.0412 35.1955 95.0189 35.2165 94.9935L43.7253 84.6479L37.0358 88.8829Z" fill="#029BC5"/>
<path d="M113.995 43.5019C112.986 43.3398 111.939 43.3052 110.879 43.3984C109.847 44.8418 109.187 46.4631 108.965 48.1008C108.949 48.4297 109.214 48.6665 109.558 48.6297C109.665 48.6181 109.771 48.5806 109.866 48.5205L116.517 44.2857C115.739 43.9023 114.89 43.6384 113.995 43.5019Z" fill="#029BC5"/>
<path d="M99.5023 51.2891L103.844 48.5468L107.889 55.4257L103.547 58.1679L99.5023 51.2891Z" fill="#D5D6DB"/>
<path d="M96.7701 54.01C96.2468 54.3415 96.0377 54.9786 96.3033 55.4329L96.7337 56.1689C97.0168 56.6117 97.663 56.6895 98.1773 56.3427C98.6667 56.0125 98.8638 55.4122 98.6279 54.969L98.1975 54.2329C97.9321 53.779 97.2933 53.6791 96.7701 54.01Z" fill="#3A556A"/>
<path d="M92.8675 56.4334C92.3442 56.7648 92.1351 57.4019 92.4007 57.8562L92.8311 58.5923C93.1142 59.035 93.7605 59.1128 94.2747 58.7661C94.7641 58.4358 94.9612 57.8355 94.7253 57.3923L94.295 56.6563C94.0293 56.2025 93.3905 56.1026 92.8675 56.4334Z" fill="#3A556A"/>
<path d="M88.9635 58.8579C88.4409 59.1898 88.2325 59.8261 88.4979 60.28L88.9283 61.016C89.2114 61.4588 89.8576 61.5366 90.3719 61.1898C90.8613 60.8596 91.0583 60.2593 90.8225 59.8161L90.3921 59.0801C90.1265 58.6258 89.487 58.5263 88.9635 58.8579Z" fill="#3A556A"/>
<path d="M85.0608 61.2812C84.5382 61.6131 84.3298 62.2495 84.5952 62.7034L85.0256 63.4394C85.3086 63.8822 85.9549 63.96 86.4692 63.6132C86.9586 63.283 87.1556 62.6827 86.9198 62.2395L86.4894 61.5034C86.2236 61.0493 85.584 60.9498 85.0608 61.2812Z" fill="#3A556A"/>
<path d="M81.1585 63.7053C80.6356 64.0373 80.4271 64.6739 80.6926 65.128L81.1233 65.8644C81.3887 66.3183 82.028 66.4177 82.551 66.0864C83.0741 65.7551 83.283 65.1186 83.0175 64.6646L82.5869 63.9283C82.3221 63.4739 81.6831 63.3739 81.1597 63.7046C81.1592 63.7049 81.159 63.705 81.1585 63.7053Z" fill="#3A556A"/>
<path d="M77.256 66.1286C76.733 66.4607 76.5245 67.0973 76.7901 67.5514L77.2207 68.2877C77.4861 68.7417 78.1254 68.8411 78.6485 68.5098C79.1715 68.1785 79.3804 67.5419 79.1149 67.088L78.6843 66.3516C78.4195 65.8973 77.7805 65.7972 77.2571 66.1279C77.2566 66.1282 77.2562 66.1285 77.256 66.1286Z" fill="#3A556A"/>
<path d="M73.3531 68.5525C72.8301 68.8845 72.6216 69.5211 72.8872 69.9752L73.3178 70.7115C73.5839 71.165 74.2235 71.2634 74.746 70.9317C75.2676 70.6005 75.476 69.9653 75.2118 69.5119L74.7812 68.7756C74.5159 68.3214 73.8766 68.2214 73.3531 68.5525Z" fill="#3A556A"/>
<path d="M69.4503 70.9758C68.9273 71.3078 68.7188 71.9444 68.9844 72.3986L69.415 73.1349C69.6811 73.5884 70.3207 73.6868 70.8432 73.3551C71.3648 73.0239 71.5732 72.3887 71.309 71.9353L70.8784 71.1989C70.613 70.7447 69.9738 70.6447 69.4503 70.9758Z" fill="#3A556A"/>
<path d="M65.5478 73.3997C65.0249 73.7317 64.8163 74.3683 65.0819 74.8224L65.5125 75.5587C65.7786 76.0122 66.4182 76.1106 66.9407 75.7789C67.4623 75.4477 67.6707 74.8125 67.4065 74.3591L66.9759 73.6228C66.7103 73.1687 66.0711 73.0687 65.5478 73.3997Z" fill="#3A556A"/>
<path d="M61.6439 75.8239C61.1208 76.1553 60.912 76.7918 61.1774 77.2457L61.178 77.2467L61.6086 77.983C61.8747 78.4366 62.5143 78.535 63.0368 78.2032C63.5584 77.8721 63.7668 77.2368 63.5026 76.7834L63.072 76.0471C62.8066 75.5928 62.1674 75.4929 61.6439 75.8239Z" fill="#3A556A"/>
<path d="M57.7423 78.2468C57.2192 78.5781 57.0104 79.2147 57.2758 79.6686L57.2764 79.6695L57.707 80.4059C57.9731 80.8594 58.6127 80.9578 59.1352 80.626C59.6568 80.2949 59.8652 79.6597 59.601 79.2063L59.1704 78.47C58.9048 78.0158 58.2656 77.9159 57.7423 78.2468Z" fill="#3A556A"/>
<defs>
<linearGradient id="paint0_linear_4_743" x1="42.2205" y1="58.0501" x2="85.9291" y2="58.0501" gradientUnits="userSpaceOnUse">
<stop offset="0.01" stop-color="#BD8E2B"/>
<stop offset="1" stop-color="#737373"/>
</linearGradient>
</defs>
</svg>
