<svg width="24" height="25" viewBox="0 0 24 25" fill="none" xmlns="http://www.w3.org/2000/svg">
<g clip-path="url(#clip0_4_2199)">
<path d="M12 16.5C9.79398 16.5 7.99998 14.706 7.99998 12.5C7.99998 10.294 9.79398 8.5 12 8.5C14.206 8.5 16 10.294 16 12.5C16 14.706 14.206 16.5 12 16.5ZM12 10.5C10.897 10.5 9.99998 11.397 9.99998 12.5C9.99998 13.603 10.897 14.5 12 14.5C13.103 14.5 14 13.603 14 12.5C14 11.397 13.103 10.5 12 10.5ZM4.99998 7.5C4.44798 7.5 3.99998 7.948 3.99998 8.5C3.99998 9.052 4.44798 9.5 4.99998 9.5C5.55198 9.5 5.99998 9.052 5.99998 8.5C5.99998 7.948 5.55198 7.5 4.99998 7.5ZM18 10.5C18 11.052 18.448 11.5 19 11.5C19.552 11.5 20 11.052 20 10.5C20 9.948 19.552 9.5 19 9.5C18.448 9.5 18 9.948 18 10.5ZM4.99998 13.5C4.44798 13.5 3.99998 13.948 3.99998 14.5C3.99998 15.052 4.44798 15.5 4.99998 15.5C5.55198 15.5 5.99998 15.052 5.99998 14.5C5.99998 13.948 5.55198 13.5 4.99998 13.5ZM18 16.5C18 17.052 18.448 17.5 19 17.5C19.552 17.5 20 17.052 20 16.5C20 15.948 19.552 15.5 19 15.5C18.448 15.5 18 15.948 18 16.5ZM16.999 21.5C15.365 21.5 13.901 21.101 12.486 20.715C11.138 20.347 9.86598 20 8.49998 20C6.92898 20 5.93798 20.101 5.08098 20.349C3.87498 20.696 2.60698 20.462 1.60098 19.705C0.583977 18.94 0.000976562 17.772 0.000976562 16.5V8.952C0.000976562 6.889 1.29998 5.008 3.23398 4.271C4.57498 3.759 5.84298 3.5 7.00198 3.5C8.63598 3.5 10.099 3.899 11.515 4.285C12.863 4.653 14.135 5 15.501 5C17.071 5 18.063 4.899 18.92 4.651C20.128 4.304 21.396 4.538 22.401 5.295C23.418 6.06 24.001 7.228 24.001 8.5V16.048C24.001 18.111 22.701 19.992 20.767 20.729C19.426 21.241 18.159 21.5 16.999 21.5ZM8.49998 18C10.134 18 11.597 18.399 13.013 18.785C14.361 19.153 15.633 19.5 16.999 19.5C17.913 19.5 18.941 19.285 20.055 18.86C21.238 18.41 22.001 17.306 22.001 16.048V8.5C22.001 7.863 21.708 7.277 21.198 6.894C20.699 6.519 20.072 6.401 19.473 6.573C18.422 6.876 17.271 7 15.499 7C13.865 7 12.402 6.601 10.986 6.215C9.63798 5.847 8.36598 5.5 6.99998 5.5C6.08498 5.5 5.05798 5.715 3.94398 6.14C2.76098 6.59 1.99798 7.694 1.99798 8.952V16.5C1.99798 17.137 2.29098 17.723 2.80098 18.106C3.29998 18.481 3.92698 18.599 4.52498 18.426C5.57598 18.123 6.72798 17.999 8.49898 17.999L8.49998 18Z" fill="black"/>
</g>
<defs>
<clipPath id="clip0_4_2199">
<rect width="24" height="24" fill="white" transform="translate(0 0.5)"/>
</clipPath>
</defs>
</svg>
